<svg xmlns="http://www.w3.org/2000/svg" version="1.1" xmlns:xlink="http://www.w3.org/1999/xlink" xmlns:svgjs="http://svgjs.dev/svgjs" width="2000" height="1500" viewBox="0 0 2000 1500"><rect width="2000" height="1500" fill="#293040"></rect><g transform="matrix(0.75,0,0,0.75,249.090909090909,282.7536437246963)"><svg viewBox="0 0 396 247" data-background-color="#293040" preserveAspectRatio="xMidYMid meet" height="1247" width="2000" xmlns="http://www.w3.org/2000/svg" xmlns:xlink="http://www.w3.org/1999/xlink"><g id="tight-bounds" transform="matrix(1,0,0,1,0.2400000000000091,-0.09999999999999432)"><svg viewBox="0 0 395.52 247.2" height="247.2" width="395.52"><g><svg></svg></g><g><svg viewBox="0 0 395.52 247.2" height="247.2" width="395.52"><g><path d="M55.039 247.2l96.536-167.205 0 6.424-90.87 157.392h274.11l-90.87-157.392v-6.424l96.536 167.205zM197.76 0l26.403 45.732-3.709 0-22.694-39.307-22.694 39.307-3.709 0z" fill="#d5b263" fill-rule="nonzero" stroke="none" stroke-width="1" stroke-linecap="butt" stroke-linejoin="miter" stroke-miterlimit="10" stroke-dasharray="" stroke-dashoffset="0" font-family="none" font-weight="none" font-size="none" text-anchor="none" style="mix-blend-mode: normal" data-fill-palette-color="tertiary"></path></g><g transform="matrix(1,0,0,1,173.82310703982435,67.97999999999999)"><svg viewBox="0 0 47.873785920351274 111.24" height="111.24" width="47.873785920351274"><g><svg viewBox="0 0 47.873785920351274 111.24" height="111.24" width="47.873785920351274"><g><svg viewBox="0 0 97.87877094972065 227.43207521881806" height="111.24" width="47.873785920351274"><g transform="matrix(1,0,0,1,0,116.19207521881808)"><svg viewBox="0 0 97.87877094972065 111.24" height="111.24" width="97.87877094972065"><g id="textblocktransform"><svg viewBox="0 0 97.87877094972065 111.24" height="111.24" width="97.87877094972065" id="textblock"><g><svg viewBox="0 0 97.87877094972065 111.24" height="111.24" width="97.87877094972065"><g transform="matrix(1,0,0,1,0,0)"><svg width="97.87877094972065" viewBox="0 -35.8 31.5 35.8" height="111.24" data-palette-color="#d5b263"><path d="M25.25-2.15L31.5-2.15 31.5 0 0 0 0-2.15 6.4-2.15Q4-3.4 2-5.25L2-5.25 5.7-9.7Q11-5.1 16.7-5.1L16.7-5.1Q19.55-5.1 21.23-6.33 22.9-7.55 22.9-9.58 22.9-11.6 21.33-12.73 19.75-13.85 15.9-14.78 12.05-15.7 10.05-16.48 8.05-17.25 6.5-18.5L6.5-18.5Q3.4-20.85 3.4-25.7 3.4-30.55 6.93-33.18 10.45-35.8 15.65-35.8L15.65-35.8Q19-35.8 22.3-34.7 25.6-33.6 28-31.6L28-31.6 24.85-27.15Q23.3-28.55 20.65-29.45 18-30.35 15.43-30.35 12.85-30.35 11.2-29.3 9.55-28.25 9.55-26.13 9.55-24 11.2-22.88 12.85-21.75 18.23-20.45 23.6-19.15 26.33-16.8 29.05-14.45 29.05-10.2L29.05-10.2Q29.05-5.05 25.25-2.15L25.25-2.15Z" opacity="1" transform="matrix(1,0,0,1,0,0)" fill="#d5b263" class="wordmark-text-0" data-fill-palette-color="primary" id="text-0"></path></svg></g></svg></g></svg></g></svg></g><g transform="matrix(1,0,0,1,18.694845251396643,0)"><svg viewBox="0 0 60.48908044692736 89.93098097881808" height="89.93098097881808" width="60.48908044692736"><g><svg xmlns="http://www.w3.org/2000/svg" xmlns:xlink="http://www.w3.org/1999/xlink" version="1.1" x="0" y="0" viewBox="15.665259198861975 3.9 42.07126219468121 62.54864270096429" style="enable-background:new 0 0 75 75;" xml:space="preserve" height="89.93098097881808" width="60.48908044692736" class="icon-icon-0" data-fill-palette-color="accent" id="icon-0"><path d="M36.9 14.5c-3 0-5.4 2.4-5.4 5.4s2.4 5.4 5.4 5.4 5.4-2.4 5.4-5.4S39.9 14.5 36.9 14.5zM36.9 24c-2.3 0-4.1-1.8-4.1-4.1 0-2.3 1.8-4.1 4.1-4.1s4.1 1.8 4.1 4.1C41 22.1 39.2 24 36.9 24z" fill="#c9ad8b" data-fill-palette-color="accent"></path><path d="M37.2 3.9c-8.9 0-16.1 29.2-16.1 38.1 0 8.9 7.2 16.1 16.1 16.1S53.3 50.9 53.3 42C53.3 33.1 46.1 3.9 37.2 3.9zM35.8 52.4c-0.1 0.2-0.3 0.3-0.5 0.3-1.6 0-3.2-0.1-4.8-0.5-1.6-0.4-3.2-1.3-4.5-2.6-1.2-1.3-2-3-2.2-4.7-0.3-1.7-0.1-3.4 0.5-5 0.1-0.3 0.4-0.4 0.7-0.3 0.2 0.1 0.3 0.3 0.3 0.5l0 0c0 1.5 0.2 3 0.7 4.3 0.4 1.3 1.1 2.5 2 3.5 0.9 0.9 2.1 1.7 3.4 2.2 1.3 0.6 2.8 1.1 4.2 1.7C35.8 51.8 35.9 52.1 35.8 52.4zM36.9 25.8c-3.3 0-5.9-2.6-5.9-5.9s2.6-5.9 5.9-5.9 5.9 2.6 5.9 5.9S40.2 25.8 36.9 25.8z" fill="#c9ad8b" data-fill-palette-color="accent"></path><path d="M44.4 62.3l10.4 4c1.6 0.6 3.2-0.7 2.9-2.4L56 53.6c-0.3-1.8-2.5-2.4-3.8-1.1-2.4 2.4-5.6 4.5-8.1 5.9C42.5 59.3 42.6 61.6 44.4 62.3z" fill="#c9ad8b" data-fill-palette-color="accent"></path><path d="M17.4 53.6l-1.7 10.3c-0.3 1.7 1.4 3 2.9 2.4l10.4-4c1.7-0.7 1.9-3.1 0.3-4-2.6-1.4-5.8-3.5-8.1-5.9C19.9 51.2 17.7 51.8 17.4 53.6z" fill="#c9ad8b" data-fill-palette-color="accent"></path></svg></g></svg></g><g></g></svg></g></svg></g></svg></g></svg></g><defs></defs></svg><rect width="395.52" height="247.2" fill="none" stroke="none" visibility="hidden"></rect></g></svg></g></svg>